<svg width="71" height="70" viewBox="0 0 71 70" fill="none" xmlns="http://www.w3.org/2000/svg">
<rect x="0.666504" width="70" height="70" rx="35" fill="#DFDFDF"/>
<path d="M47.8571 56.2724C47.5038 56.4715 47.152 56.6668 46.7907 56.8501C45.1269 57.6929 43.377 58.348 41.591 58.7971C41.2443 58.8823 40.8916 58.9612 40.5463 59.0331C29.7861 61.2148 18.791 55.9031 13.8098 46.1154C9.11878 36.8993 10.7333 25.7026 17.813 18.1835C17.9577 18.2931 18.1179 18.3863 18.3001 18.4457C18.4711 18.5013 18.6463 18.5288 18.8211 18.5288C19.0818 18.5288 19.3406 18.4673 19.5798 18.3459C19.9791 18.1429 20.275 17.7968 20.4136 17.3712C20.5521 16.9456 20.5169 16.4916 20.314 16.0925C20.111 15.6935 19.7644 15.3974 19.3388 15.2589C18.9127 15.1202 18.458 15.1559 18.0592 15.3587C17.6599 15.5615 17.3639 15.9078 17.2253 16.3334C17.0515 16.8663 17.1638 17.4224 17.4729 17.8431C10.2457 25.5096 8.59597 36.9321 13.3809 46.3332C17.6974 54.8153 26.4415 60.0005 35.7064 60C37.3426 59.9998 38.9961 59.838 40.6431 59.504C40.9954 59.4307 41.3538 59.3504 41.7071 59.2636C43.5288 58.8056 45.3124 58.138 47.0087 57.2788C47.3761 57.0921 47.734 56.8935 48.0934 56.6912C48.209 56.6259 48.2498 56.4794 48.1845 56.3637C48.1192 56.248 47.9726 56.2069 47.8571 56.2724ZM17.6829 16.4822C17.7815 16.1787 17.9929 15.932 18.2771 15.7871C18.4476 15.7005 18.6322 15.6568 18.8183 15.6568C18.9427 15.6568 19.0677 15.6766 19.1898 15.7162C19.4933 15.8148 19.7404 16.0261 19.8851 16.3104C20.0298 16.5949 20.0551 16.9189 19.956 17.2224C19.8574 17.5257 19.646 17.7727 19.3613 17.9173C19.0771 18.0626 18.753 18.0872 18.4491 17.9884C17.8224 17.7844 17.4785 17.1088 17.6829 16.4822ZM57.9615 23.6647C52.8769 13.6814 41.6685 8.26754 30.7068 10.4982C30.3822 10.5587 30.0402 10.6348 29.6297 10.7371C27.7962 11.1982 26.014 11.8649 24.3336 12.7192C23.9654 12.9063 23.598 13.1067 23.2471 13.3079C23.132 13.3741 23.0921 13.5211 23.1583 13.6361C23.2246 13.7514 23.3711 13.791 23.4867 13.7248C23.8305 13.5274 24.1908 13.3311 24.5516 13.1478C26.2 12.3097 27.9484 11.6555 29.7466 11.2034C30.1473 11.1036 30.4804 11.0296 30.7989 10.97C41.5534 8.78236 52.5461 14.0913 57.5326 23.8828C62.1686 32.9915 60.6264 44.1106 53.7083 51.6154C53.5693 51.5136 53.4171 51.4258 53.2447 51.3696C52.3667 51.0834 51.4173 51.5658 51.1313 52.4443C50.8452 53.3227 51.3276 54.2704 52.2065 54.5566C52.3771 54.6122 52.5527 54.6397 52.727 54.6397C52.9877 54.6397 53.2466 54.5782 53.4857 54.4568C53.885 54.2537 54.1809 53.9075 54.32 53.4819C54.4966 52.9393 54.3787 52.371 54.0564 51.9478C61.115 44.2956 62.6896 32.9547 57.9615 23.6647ZM53.8624 53.333C53.7633 53.6366 53.5524 53.8835 53.2677 54.0281C52.983 54.173 52.6594 54.1981 52.3554 54.0993C51.7288 53.8953 51.3845 53.2197 51.5888 52.5931C51.7927 51.9668 52.4691 51.6222 53.0958 51.8269C53.7224 52.0309 54.0663 52.7065 53.8624 53.333ZM45.296 53.9059C37.5291 57.8557 27.9893 56.6021 21.5053 50.7976C21.6053 50.6595 21.6866 50.5048 21.7425 50.3341C22.0295 49.4521 21.5452 48.5009 20.663 48.2134C19.7794 47.926 18.8286 48.4103 18.5411 49.2923C18.4021 49.7195 18.4378 50.1754 18.6416 50.5759C18.8455 50.9764 19.1931 51.2736 19.6206 51.4128C19.793 51.4689 19.9682 51.4956 20.1406 51.4956C20.5159 51.4956 20.8763 51.3659 21.1684 51.1412C25.2219 54.7764 30.4437 56.6721 35.7087 56.6721C39.0571 56.6721 42.4234 55.9057 45.5139 54.3345C54.1832 49.9244 58.8845 40.2013 56.9478 30.6934C56.889 30.3804 56.8181 30.071 56.7401 29.7588C56.3399 28.1677 55.7607 26.6221 55.0189 25.1647C54.9583 25.0462 54.8127 24.9995 54.6953 25.0593C54.5769 25.1197 54.5299 25.2643 54.5901 25.3826C55.3154 26.808 55.8819 28.3198 56.2737 29.8757C56.3493 30.1781 56.4179 30.4781 56.4757 30.7854C58.3702 40.0863 53.7732 49.5937 45.296 53.9059ZM19.7695 50.9555C19.1391 50.7506 18.7934 50.0712 18.9987 49.4411C19.164 48.9343 19.6361 48.6115 20.143 48.6115C20.2661 48.6115 20.391 48.6305 20.5141 48.6706C21.1445 48.8758 21.4902 49.5554 21.285 50.1852C21.0797 50.8151 20.3999 51.1602 19.7695 50.9555ZM51.9087 18.7823C51.3685 18.6069 50.8048 18.7221 50.3811 19.0378C43.7341 12.9276 33.888 11.5682 25.8298 15.6639C17.1643 20.0699 12.4611 29.7938 14.3932 39.3123C14.4566 39.6177 14.5261 39.9288 14.6018 40.2353C14.9992 41.815 15.5793 43.362 16.3253 44.8337C16.3676 44.9172 16.4521 44.9654 16.54 44.9654C16.5761 44.9654 16.6133 44.9571 16.6485 44.9393C16.7669 44.8794 16.8143 44.7348 16.7542 44.6163C16.0242 43.1766 15.4572 41.6631 15.0687 40.1192C14.9945 39.8194 14.9263 39.514 14.8643 39.2154C12.975 29.9093 17.5739 20.4007 26.0478 16.0926C33.9227 12.0891 43.5433 13.4155 50.0438 19.3812C49.9367 19.5244 49.8451 19.682 49.7868 19.8613C49.6478 20.2885 49.683 20.7444 49.8869 21.1449C50.0908 21.5454 50.4388 21.8426 50.8663 21.9818C51.0378 22.0376 51.2139 22.0653 51.3891 22.0653C51.6508 22.0653 51.9106 22.0036 52.1506 21.8817C52.5513 21.678 52.8487 21.3303 52.9877 20.9031C53.2752 20.0211 52.7914 19.0699 51.9087 18.7823ZM52.5302 20.7542C52.4311 21.0594 52.2187 21.3075 51.9322 21.4531C51.6466 21.5986 51.3206 21.6242 51.0152 21.5244C50.7099 21.4251 50.4614 21.2129 50.3158 20.9268C50.1701 20.6408 50.1448 20.3152 50.2444 20.0101C50.4093 19.5032 50.8818 19.1804 51.3882 19.1804C51.5113 19.1804 51.6367 19.1995 51.7598 19.2396C52.3897 19.4448 52.7355 20.1244 52.5302 20.7542ZM30.619 48.8153C31.9686 50.1646 33.7626 50.9078 35.6717 50.9078C37.5803 50.9078 39.3747 50.1649 40.7239 48.8153C42.0744 47.4668 42.818 45.6733 42.818 43.7655C42.818 41.8577 42.0744 40.0642 40.7239 38.7158C39.3747 37.3662 37.5803 36.6232 35.6717 36.6232C33.7626 36.6232 31.9681 37.3662 30.619 38.7158C27.8333 41.5002 27.8333 46.0309 30.619 48.8153ZM30.9591 39.0557C32.2175 37.797 33.8913 37.104 35.6716 37.104C37.452 37.104 39.1253 37.797 40.3837 39.0557C41.6432 40.3135 42.337 41.9861 42.337 43.7655C42.337 45.5449 41.6432 47.2176 40.3837 48.4753C39.1253 49.7341 37.452 50.4271 35.6716 50.4271C33.8913 50.4271 32.2175 49.7341 30.9591 48.4753C28.3609 45.8783 28.3609 41.6528 30.9591 39.0557ZM30.6396 46.6696C31.4157 48.0131 32.669 48.9742 34.168 49.3756C34.6687 49.5099 35.1765 49.5761 35.6815 49.5761C36.6882 49.5761 37.6822 49.3122 38.5775 48.7955C39.922 48.0199 40.8836 46.7673 41.2852 45.2689C41.6873 43.7702 41.4811 42.2049 40.7051 40.8614C39.1032 38.0883 35.542 37.135 32.7667 38.7355C31.4222 39.5111 30.4606 40.7638 30.059 42.2622C29.6574 43.7608 29.8636 45.3262 30.6396 46.6696ZM30.5236 42.3866C30.8919 41.0121 31.7741 39.8635 33.0072 39.1519C33.8443 38.6688 34.7594 38.4392 35.6632 38.4392C37.5065 38.4392 39.3024 39.3949 40.2884 41.1018C41.0001 42.3342 41.1894 43.7697 40.8206 45.1444C40.4523 46.5189 39.5701 47.6678 38.337 48.3791C35.7924 49.8472 32.5257 48.973 31.0563 46.4292C30.3442 45.1968 30.1553 43.7613 30.5236 42.3866ZM35.4044 46.7905V47.6683C35.4044 47.8011 35.5119 47.9087 35.6449 47.9087C35.7778 47.9087 35.8854 47.8011 35.8854 47.6683V46.7946C37.3609 46.736 38.3075 46.1034 38.3075 45.1388C38.3075 44.5402 37.981 43.5531 35.8854 43.4836V41.1815C36.8329 41.2426 37.5417 41.6307 37.6052 42.1549C37.6211 42.2868 37.74 42.3824 37.8729 42.3648C38.0045 42.3488 38.0989 42.2288 38.0829 42.0971C37.9889 41.3226 37.0978 40.7727 35.8854 40.7022V39.8628C35.8854 39.7299 35.7778 39.6224 35.6449 39.6224C35.5119 39.6224 35.4044 39.7299 35.4044 39.8628V40.7005C34.0618 40.7629 33.1707 41.3715 33.1707 42.265C33.1707 43.3438 33.9087 43.8911 35.4044 43.9465V46.3107C34.4127 46.2395 33.5892 45.7803 33.516 45.2201C33.4986 45.0883 33.3783 44.9935 33.2463 45.013C33.1143 45.0301 33.0218 45.1508 33.0392 45.2825C33.1453 46.0947 34.1435 46.7128 35.4044 46.7905ZM37.8264 45.1388C37.8264 45.9513 36.8258 46.2738 35.8854 46.3166V43.962C36.8202 43.9944 37.8264 44.2381 37.8264 45.1388ZM33.6517 42.265C33.6517 41.6625 34.3638 41.2347 35.4044 41.18V43.4709C33.8603 43.412 33.6517 42.8014 33.6517 42.265ZM22.5519 26.6639C19.4017 26.6639 16.8392 29.2252 16.8392 32.3735C16.8392 35.5218 19.4017 38.0831 22.5519 38.0831C25.7016 38.0831 28.2641 35.5218 28.2641 32.3735C28.2641 29.2252 25.7016 26.6639 22.5519 26.6639ZM19.8325 36.8321V33.9536C19.8325 33.5867 20.0669 33.2632 20.4159 33.1486L21.3681 32.837C21.6842 33.1453 22.0962 33.3386 22.5519 33.3386C23.0075 33.3386 23.4195 33.1452 23.7357 32.8368L24.6879 33.1484C25.0355 33.2632 25.2694 33.5867 25.2694 33.9536V36.833C24.476 37.3177 23.5478 37.6024 22.5519 37.6024C21.5551 37.6024 20.6263 37.3174 19.8325 36.8321ZM22.5519 32.8578C21.8308 32.8578 21.2445 32.1953 21.2445 31.381C21.2445 30.5807 21.8064 29.9772 22.5519 29.9772C23.2969 29.9772 23.8587 30.5807 23.8587 31.381C23.8587 32.1953 23.2725 32.8578 22.5519 32.8578ZM25.7504 36.502V33.9536C25.7504 33.3787 25.384 32.8716 24.8382 32.6918L24.0537 32.435C24.2331 32.1302 24.3398 31.7697 24.3398 31.381C24.3398 30.3241 23.5543 29.4964 22.5519 29.4964C21.549 29.4964 20.7635 30.3241 20.7635 31.381C20.7635 31.7698 20.8706 32.1304 21.0496 32.4353L20.2661 32.6918C19.7193 32.8714 19.3515 33.3785 19.3515 33.9536V36.5009C18.1184 35.5435 17.3202 34.0515 17.3202 32.3735C17.3202 29.4903 19.6671 27.1446 22.5519 27.1446C25.4362 27.1446 27.7831 29.4903 27.7831 32.3735C27.7831 34.0522 26.9845 35.5446 25.7504 36.502ZM48.7928 26.6639C45.6427 26.6639 43.0801 29.2252 43.0801 32.3735C43.0801 35.5218 45.6426 38.0831 48.7928 38.0831C51.9425 38.0831 54.5055 35.5218 54.5055 32.3735C54.5055 29.2252 51.9425 26.6639 48.7928 26.6639ZM46.0739 36.8323V33.9536C46.0739 33.5867 46.3083 33.263 46.6573 33.1486L47.609 32.837C47.9252 33.1453 48.3372 33.3386 48.7928 33.3386C49.2485 33.3386 49.6605 33.1452 49.9766 32.8368L50.9288 33.1484C51.2769 33.2632 51.5104 33.5867 51.5104 33.9536V36.833C50.7174 37.3177 49.7887 37.6024 48.7928 37.6024C47.7965 37.6024 46.8673 37.3175 46.0739 36.8323ZM48.7928 32.8578C48.0718 32.8578 47.4855 32.1953 47.4855 31.381C47.4855 30.5807 48.0473 29.9772 48.7928 29.9772C49.5379 29.9772 50.1002 30.5807 50.1002 31.381C50.1002 32.1953 49.5134 32.8578 48.7928 32.8578ZM51.9914 36.502V33.9536C51.9914 33.3787 51.625 32.8716 51.0791 32.6918L50.2951 32.435C50.4741 32.1302 50.5812 31.7697 50.5812 31.381C50.5812 30.3241 49.7958 29.4964 48.7928 29.4964C47.7899 29.4964 47.0045 30.3241 47.0045 31.381C47.0045 31.7697 47.1116 32.1304 47.291 32.4353L46.5075 32.6918C45.9602 32.8712 45.5929 33.3782 45.5929 33.9536V36.5011C44.3593 35.5437 43.5612 34.0517 43.5612 32.3735C43.5612 29.4903 45.9081 27.1447 48.7929 27.1447C51.6776 27.1447 54.0245 29.4903 54.0245 32.3735C54.0245 34.0522 53.2254 35.5445 51.9914 36.502ZM35.6721 19.6577C32.6225 19.6577 30.1412 22.1376 30.1412 25.1856C30.1412 28.2337 32.6225 30.7136 35.6721 30.7136C38.7218 30.7136 41.203 28.2337 41.203 25.1856C41.203 22.1376 38.7218 19.6577 35.6721 19.6577ZM35.6721 30.2328C32.8879 30.2328 30.6222 27.9686 30.6222 25.1856C30.6222 22.4026 32.8879 20.1385 35.6721 20.1385C38.4568 20.1385 40.722 22.4026 40.722 25.1856C40.722 27.9686 38.4568 30.2328 35.6721 30.2328ZM35.2869 23.4562C35.2869 22.7151 34.6833 22.112 33.942 22.112C33.2003 22.112 32.5971 22.7151 32.5971 23.4562C32.5971 24.1973 33.2003 24.8004 33.942 24.8004C34.6833 24.8004 35.2869 24.1973 35.2869 23.4562ZM33.0781 23.4562C33.0781 22.9801 33.4657 22.5928 33.942 22.5928C34.4183 22.5928 34.8059 22.9801 34.8059 23.4562C34.8059 23.9323 34.4183 24.3196 33.942 24.3196C33.4657 24.3196 33.0781 23.9323 33.0781 23.4562ZM37.4027 25.5711C36.6609 25.5711 36.0578 26.1742 36.0578 26.9153C36.0578 27.6564 36.6609 28.2592 37.4027 28.2592C38.144 28.2592 38.7476 27.6564 38.7476 26.9153C38.7476 26.1742 38.144 25.5711 37.4027 25.5711ZM37.4027 27.7785C36.9263 27.7785 36.5388 27.3911 36.5388 26.9153C36.5388 26.4392 36.9263 26.0519 37.4027 26.0519C37.879 26.0519 38.2666 26.4392 38.2666 26.9153C38.2666 27.3911 37.879 27.7785 37.4027 27.7785ZM38.0237 23.1757L33.6611 27.5357C33.6141 27.5827 33.5526 27.6062 33.491 27.6062C33.4295 27.6062 33.3679 27.5827 33.321 27.5357C33.227 27.4418 33.227 27.2897 33.321 27.1958L37.6836 22.8358C37.7775 22.7419 37.9297 22.7419 38.0237 22.8358C38.1176 22.9297 38.1176 23.0818 38.0237 23.1757ZM35.6721 31.607C35.805 31.607 35.9126 31.7145 35.9126 31.8474V35.4703C35.9126 35.6032 35.805 35.7107 35.6721 35.7107C35.5392 35.7107 35.4316 35.6032 35.4316 35.4703V31.8474C35.4316 31.7145 35.5392 31.607 35.6721 31.607ZM22.7924 39.2635V41.2828C22.7924 42.5192 23.7986 43.5251 25.0359 43.5251H27.1494C27.2823 43.5251 27.3899 43.6327 27.3899 43.7655C27.3899 43.8984 27.2823 44.0059 27.1494 44.0059H25.0359C23.5337 44.0059 22.3114 42.7843 22.3114 41.2828V39.2635C22.3114 39.1306 22.4189 39.0231 22.5519 39.0231C22.6848 39.0231 22.7924 39.1306 22.7924 39.2635ZM43.9548 43.7655C43.9548 43.6327 44.0624 43.5251 44.1953 43.5251H46.3088C47.5456 43.5251 48.5523 42.5192 48.5523 41.2828V39.2635C48.5523 39.1306 48.6599 39.0231 48.7928 39.0231C48.9258 39.0231 49.0333 39.1306 49.0333 39.2635V41.2828C49.0333 42.7843 47.811 44.0059 46.3088 44.0059H44.1953C44.0624 44.0059 43.9548 43.8984 43.9548 43.7655ZM26.5199 48.2356C27.1893 48.2356 27.7337 47.6915 27.7337 47.0224C27.7337 46.3534 27.1893 45.8092 26.5199 45.8092C25.8505 45.8092 25.306 46.3534 25.306 47.0224C25.306 47.6915 25.8505 48.2356 26.5199 48.2356ZM26.5199 46.29C26.9239 46.29 27.2527 46.6187 27.2527 47.0225C27.2527 47.4262 26.9239 47.7549 26.5199 47.7549C26.1159 47.7549 25.7871 47.4262 25.7871 47.0225C25.7871 46.6187 26.1159 46.29 26.5199 46.29ZM44.8243 48.2356C45.4937 48.2356 46.0382 47.6915 46.0382 47.0224C46.0382 46.3534 45.4937 45.8092 44.8243 45.8092C44.1549 45.8092 43.6105 46.3534 43.6105 47.0224C43.6105 47.6915 44.1549 48.2356 44.8243 48.2356ZM44.8243 46.29C45.2283 46.29 45.5571 46.6187 45.5571 47.0225C45.5571 47.4262 45.2283 47.7549 44.8243 47.7549C44.4203 47.7549 44.0915 47.4262 44.0915 47.0225C44.0915 46.6187 44.4204 46.29 44.8243 46.29ZM30.3611 34.5661C30.3611 35.2351 30.9055 35.7793 31.5749 35.7793C32.2443 35.7793 32.7888 35.2351 32.7888 34.5661C32.7888 33.897 32.2443 33.3529 31.5749 33.3529C30.9055 33.3529 30.3611 33.897 30.3611 34.5661ZM32.3077 34.5661C32.3077 34.9698 31.9789 35.2985 31.5749 35.2985C31.1709 35.2985 30.8421 34.9699 30.8421 34.5661C30.8421 34.1623 31.1709 33.8336 31.5749 33.8336C31.9789 33.8336 32.3077 34.1623 32.3077 34.5661ZM38.5555 34.5661C38.5555 35.2351 39.0999 35.7793 39.7693 35.7793C40.4387 35.7793 40.9832 35.2351 40.9832 34.5661C40.9832 33.897 40.4387 33.3529 39.7693 33.3529C39.0999 33.3529 38.5555 33.897 38.5555 34.5661ZM40.5021 34.5661C40.5021 34.9698 40.1733 35.2985 39.7693 35.2985C39.3653 35.2985 39.0365 34.9699 39.0365 34.5661C39.0365 34.1623 39.3653 33.8336 39.7693 33.8336C40.1733 33.8337 40.5021 34.1623 40.5021 34.5661Z" fill="#03213D"/>
</svg>
