<svg width="70" height="71" viewBox="0 0 70 71" fill="none" xmlns="http://www.w3.org/2000/svg">
<rect width="70" height="71" rx="35" fill="#DFDFDF"/>
<path d="M52.4087 31.3839C53.136 26.9716 49.4301 24.5992 44.3619 23.0167L46.0062 17.039L41.9913 16.132L40.3906 21.9521C39.3365 21.7135 38.2525 21.4892 37.1755 21.2658L38.787 15.407L34.775 14.5L33.1297 20.4759C32.2564 20.2958 31.3989 20.1175 30.5663 19.9301L30.5713 19.9112L25.0362 18.6584L23.9681 22.5448C23.9681 22.5448 26.9458 23.1635 26.8832 23.2014C28.5087 23.5688 28.8037 24.5443 28.7531 25.3179L26.8752 32.154L24.2493 41.6939C24.0505 42.1415 23.5458 42.8134 22.4102 42.5585C22.4499 42.6117 19.4931 41.8984 19.4931 41.8984L17.5 46.0649L22.7241 47.2456C23.6958 47.4663 24.6477 47.6978 25.5846 47.9148L23.9234 53.9619L27.9324 54.8689L29.5787 48.8875C30.6726 49.1568 31.7357 49.4054 32.776 49.6396L31.1366 55.593L35.1506 56.5L36.8118 50.4655C43.6565 51.64 48.8041 51.1662 50.9681 45.5551C52.7138 41.0364 50.8826 38.4299 47.281 36.7294C49.904 36.1791 51.8792 34.6155 52.4058 31.3848L52.4087 31.3839ZM43.2372 43.0422C41.9952 47.5609 33.6046 45.1191 30.8823 44.5058L33.086 36.4961C35.8074 37.1122 44.5308 38.3308 43.2382 43.0431L43.2372 43.0422ZM44.4772 31.3191C43.3455 35.4298 36.3598 33.3411 34.0935 32.8295L36.0915 25.5647C38.3588 26.0754 45.6575 27.031 44.4772 31.3191Z" fill="#F7931A"/>
</svg>
