<svg width="70" height="70" viewBox="0 0 70 70" fill="none" xmlns="http://www.w3.org/2000/svg">
<rect width="70" height="70" rx="35" fill="#DFDFDF"/>
<g clip-path="url(#clip0_126_58)">
<path d="M42.3909 29.3521V29.6097H42.2487V29.3521C42.2487 29.1231 42.0578 28.9375 41.8224 28.9375C41.5869 28.9375 41.396 29.1231 41.396 29.3521V29.6097H41.1117C40.8762 29.6097 40.6853 29.7953 40.6853 30.0243C40.6853 30.2533 40.8762 30.439 41.1117 30.439H41.2538V33.5487H41.1117C40.8762 33.5487 40.6853 33.7344 40.6853 33.9633C40.6853 34.1923 40.8762 34.378 41.1117 34.378H41.396V34.651C41.396 34.88 41.5869 35.0657 41.8224 35.0657C42.0578 35.0657 42.2487 34.88 42.2487 34.651V34.378H42.3909V34.651C42.3909 34.88 42.5818 35.0657 42.8173 35.0657C43.0528 35.0657 43.2437 34.88 43.2437 34.651V34.4004C43.9674 34.3125 44.512 33.7165 44.5168 33.0073C44.5181 32.6363 44.3677 32.28 44.0987 32.0169C44.3673 31.7537 44.5172 31.3974 44.5153 31.0266C44.5112 30.3176 43.9671 29.7215 43.2437 29.6335V29.3521C43.2437 29.1231 43.0528 28.9375 42.8173 28.9375C42.5818 28.9375 42.3909 29.1231 42.3909 29.3521ZM43.0781 33.5487H42.1066V32.443H43.0781C43.3921 32.4303 43.6573 32.6674 43.6704 32.9727C43.6836 33.2781 43.4397 33.5359 43.1257 33.5487C43.1098 33.5494 43.0939 33.5494 43.0781 33.5487ZM43.0781 30.439C43.4117 30.439 43.6822 30.702 43.6822 31.0264C43.6822 31.3508 43.4117 31.6138 43.0781 31.6138H42.1066V30.439H43.0781Z" fill="#03213D"/>
<path d="M37.728 32.0017C37.728 34.6204 39.9111 36.7432 42.604 36.7432C45.2969 36.7432 47.48 34.6204 47.48 32.0017C47.48 29.3831 45.2969 27.2603 42.604 27.2603C39.9123 27.2632 37.7311 29.3843 37.728 32.0017ZM46.6271 32.0017C46.6271 34.1623 44.8258 35.9138 42.6039 35.9138C40.382 35.9138 38.5809 34.1622 38.5809 32.0016C38.5809 29.841 40.3822 28.0895 42.6041 28.0895C43.6711 28.0895 44.6943 28.5017 45.4488 29.2354C46.2029 29.9693 46.6266 30.9642 46.6271 32.0017Z" fill="#03213D"/>
<path d="M48.0051 38.9095V35.0968C49.7647 32.1978 48.7744 28.4607 45.7933 26.7496C45.2462 26.4356 44.6532 26.2043 44.0346 26.0636C43.8572 23.9235 42.8743 21.9222 41.2739 20.4429C39.5801 18.8702 37.3267 17.9949 34.9848 18C29.9852 18 25.9036 21.9399 25.9036 26.7828V31.6829H25.2436C23.4501 31.6826 21.9957 33.0959 21.9949 34.84V38.9095C21.4264 39.2121 21 39.8094 21 40.4957V43.1821C21 43.8684 21.4264 44.4658 21.9949 44.7684V48.8379C21.9955 50.5829 23.4491 51.9978 25.2436 52H44.7564C46.551 51.9978 48.0047 50.5827 48.0051 48.8377V44.7681C48.5736 44.4655 49 43.8681 49 43.1818V40.4957C49 39.8098 48.5736 39.2121 48.0051 38.9095ZM48.0223 32.0017C48.0222 34.9115 45.5964 37.2704 42.604 37.2703C39.6116 37.2703 37.1858 34.9114 37.1858 32.0015C37.1859 29.0917 39.6117 26.7328 42.6041 26.7328C45.5951 26.7361 48.0189 29.0931 48.0223 32.0017ZM36.3416 31.6829H29.2437V26.7828C29.2437 23.7155 31.8265 21.2203 34.9946 21.2203C37.9261 21.2107 40.3921 23.3545 40.7094 26.1884C38.2207 26.9593 36.4819 29.1467 36.3416 31.6829ZM26.7563 26.7828C26.7563 22.3972 30.456 18.8293 34.9853 18.8293C37.1056 18.8247 39.1455 19.6178 40.6782 21.0425C42.0758 22.3332 42.9564 24.0648 43.1628 25.9283C42.9786 25.9124 42.7922 25.9038 42.6038 25.9038C42.249 25.9038 41.8948 25.933 41.545 25.9912C41.1287 22.7838 38.3185 20.3815 34.9939 20.3911C31.3556 20.3911 28.3909 23.2583 28.3909 26.7828V31.6829H26.7563V26.7828ZM22.8477 34.84C22.848 33.5541 23.9203 32.5119 25.2426 32.5122C25.2429 32.5122 25.2433 32.5122 25.2436 32.5122H36.3552C36.6437 35.8667 39.6741 38.3587 43.1238 38.0781C44.6589 37.9533 46.093 37.2831 47.1523 36.1955V38.6993C47.1523 38.6993 47.1465 38.7317 47.1418 38.7317H22.8582C22.8535 38.7317 22.8477 38.6993 22.8477 38.6993V34.84ZM47.1523 48.8377C47.1524 50.1249 46.0802 51.169 44.7564 51.1707H25.2436C23.9198 51.169 22.8476 50.1249 22.8477 48.8377V44.9782C22.8477 44.9782 22.8535 44.9512 22.8582 44.9512H47.1418C47.1465 44.9512 47.1523 44.9783 47.1523 44.9782V48.8377ZM48.1472 43.2236C48.1472 43.7579 47.7018 44.1911 47.1523 44.1911H22.8477C22.2982 44.1911 21.8528 43.7579 21.8528 43.2236V40.5285C21.8528 39.9941 22.2982 39.561 22.8477 39.561H47.1523C47.7018 39.561 48.1472 39.9941 48.1472 40.5285V43.2236H48.1472Z" fill="#03213D"/>
<path d="M25.7889 41.0537C25.3429 41.0545 24.9819 41.4067 24.9827 41.8405C24.9835 42.2742 25.3457 42.6252 25.7918 42.6245C26.2373 42.6237 26.598 42.2723 26.598 41.839C26.5971 41.4051 26.2351 41.0538 25.7889 41.0537ZM25.7889 41.883C25.764 41.8839 25.743 41.8649 25.7421 41.8406C25.7412 41.8164 25.7607 41.796 25.7856 41.7951C25.8106 41.7943 25.8315 41.8132 25.8324 41.8375C25.8325 41.838 25.8325 41.8385 25.8325 41.839C25.8329 41.8628 25.8134 41.8825 25.7889 41.883Z" fill="#03213D"/>
<path d="M30.3943 41.0537C29.9483 41.0545 29.5873 41.4068 29.5881 41.8405C29.589 42.2743 29.9512 42.6253 30.3973 42.6245C30.8428 42.6237 31.2035 42.2722 31.2035 41.839C31.2025 41.4051 30.8406 41.0538 30.3943 41.0537ZM30.3943 41.883C30.3694 41.8838 30.3484 41.8648 30.3476 41.8406C30.3467 41.8163 30.3662 41.796 30.3912 41.7951C30.4161 41.7943 30.437 41.8133 30.4379 41.8375C30.4379 41.838 30.4379 41.8385 30.4379 41.839C30.4383 41.8629 30.4188 41.8825 30.3943 41.883Z" fill="#03213D"/>
<path d="M34.9999 41.0537C34.5539 41.0545 34.193 41.4069 34.1938 41.8406C34.1947 42.2744 34.557 42.6253 35.0031 42.6245C35.4486 42.6236 35.8092 42.2722 35.8092 41.839C35.8082 41.4051 35.4462 41.0538 34.9999 41.0537ZM34.9999 41.883C34.975 41.8839 34.9541 41.8649 34.9531 41.8406C34.9522 41.8164 34.9717 41.796 34.9967 41.7951C35.0216 41.7943 35.0426 41.8132 35.0435 41.8375C35.0435 41.838 35.0435 41.8385 35.0435 41.839C35.0439 41.8629 35.0245 41.8825 34.9999 41.883Z" fill="#03213D"/>
<path d="M39.6055 41.0537C39.1594 41.0545 38.7985 41.4068 38.7993 41.8405C38.8001 42.2743 39.1624 42.6253 39.6085 42.6245C40.054 42.6237 40.4147 42.2722 40.4146 41.839C40.4137 41.4051 40.0517 41.0538 39.6055 41.0537ZM39.6055 41.883C39.5805 41.8838 39.5596 41.8648 39.5588 41.8406C39.5579 41.8163 39.5774 41.796 39.6024 41.7951C39.6273 41.7943 39.6482 41.8133 39.6491 41.8375C39.6491 41.838 39.6491 41.8385 39.6491 41.839C39.6495 41.8629 39.63 41.8825 39.6055 41.883Z" fill="#03213D"/>
<path d="M44.2111 41.0537C43.7651 41.0545 43.4042 41.4069 43.405 41.8406C43.4059 42.2744 43.7682 42.6253 44.2143 42.6245C44.6598 42.6236 45.0205 42.2721 45.0204 41.8388C45.0193 41.4049 44.6573 41.0537 44.2111 41.0537ZM44.2111 41.883C44.1862 41.8838 44.1653 41.8648 44.1645 41.8405C44.1636 41.8162 44.1832 41.7959 44.2081 41.7951C44.2331 41.7943 44.254 41.8133 44.2548 41.8376C44.2548 41.8381 44.2548 41.8386 44.2548 41.839C44.2553 41.8629 44.2357 41.8826 44.2112 41.883C44.2112 41.883 44.2112 41.883 44.2111 41.883Z" fill="#03213D"/>
<path d="M26.0433 35.069H30.3836C30.619 35.069 30.8099 34.8834 30.8099 34.6544C30.8099 34.4254 30.619 34.2397 30.3836 34.2397H26.0433C25.8079 34.2397 25.6169 34.4254 25.6169 34.6544C25.6169 34.8834 25.8079 35.069 26.0433 35.069Z" fill="#03213D"/>
<path d="M24.2904 35.069H24.5679C24.8034 35.069 24.9943 34.8834 24.9943 34.6544C24.9943 34.4254 24.8034 34.2397 24.5679 34.2397H24.2904C24.0549 34.2397 23.864 34.4254 23.864 34.6544C23.864 34.8834 24.0549 35.069 24.2904 35.069Z" fill="#03213D"/>
</g>
<defs>
<clipPath id="clip0_126_58">
<rect width="28" height="34" fill="white" transform="translate(21 18)"/>
</clipPath>
</defs>
</svg>
