<svg width="147" height="42" viewBox="0 0 147 42" fill="none" xmlns="http://www.w3.org/2000/svg">
<path d="M53.6 18V8.8H50.144V6.672H59.376V8.8H55.904V18H53.6ZM60.3956 18V6.672H62.6356V10.544C62.881 10.256 63.153 10.032 63.4516 9.872C63.761 9.712 64.0703 9.6 64.3796 9.536C64.6996 9.46133 64.993 9.424 65.2596 9.424C66.049 9.424 66.6676 9.6 67.1156 9.952C67.5636 10.304 67.8836 10.7787 68.0756 11.376C68.2676 11.9733 68.3636 12.6293 68.3636 13.344V18H66.1236V13.664C66.1236 13.408 66.097 13.152 66.0436 12.896C66.001 12.64 65.921 12.4053 65.8036 12.192C65.6863 11.968 65.521 11.792 65.3076 11.664C65.0943 11.5253 64.8116 11.456 64.4596 11.456C64.129 11.456 63.8463 11.5253 63.6116 11.664C63.377 11.8027 63.185 11.9893 63.0356 12.224C62.897 12.448 62.7956 12.6987 62.7316 12.976C62.6676 13.2533 62.6356 13.5307 62.6356 13.808V18H60.3956ZM73.9391 18.112C73.0538 18.112 72.3018 17.936 71.6831 17.584C71.0645 17.232 70.5898 16.736 70.2591 16.096C69.9285 15.4453 69.7631 14.688 69.7631 13.824C69.7631 12.9493 69.9338 12.1867 70.2751 11.536C70.6165 10.8747 71.0965 10.3573 71.7151 9.984C72.3445 9.61067 73.0858 9.424 73.9391 9.424C74.5791 9.424 75.1391 9.53067 75.6191 9.744C76.1098 9.95733 76.5205 10.256 76.8511 10.64C77.1925 11.024 77.4431 11.472 77.6031 11.984C77.7738 12.4853 77.8538 13.0293 77.8431 13.616C77.8431 13.7653 77.8378 13.9093 77.8271 14.048C77.8165 14.1867 77.7951 14.3253 77.7631 14.464H71.9871C72.0191 14.784 72.1098 15.0773 72.2591 15.344C72.4085 15.6107 72.6165 15.824 72.8831 15.984C73.1605 16.1333 73.5018 16.208 73.9071 16.208C74.1738 16.208 74.4191 16.1813 74.6431 16.128C74.8671 16.064 75.0591 15.968 75.2191 15.84C75.3791 15.712 75.4911 15.5627 75.5551 15.392H77.7631C77.6245 16.0213 77.3631 16.5387 76.9791 16.944C76.6058 17.3493 76.1525 17.648 75.6191 17.84C75.0858 18.0213 74.5258 18.112 73.9391 18.112ZM72.0351 12.896H75.6991C75.6885 12.608 75.6138 12.3413 75.4751 12.096C75.3471 11.84 75.1498 11.6373 74.8831 11.488C74.6271 11.328 74.2965 11.248 73.8911 11.248C73.4858 11.248 73.1445 11.328 72.8671 11.488C72.6005 11.648 72.3978 11.856 72.2591 12.112C72.1311 12.3573 72.0565 12.6187 72.0351 12.896ZM51.184 34V22.672H56.144C56.6667 22.672 57.1413 22.7253 57.568 22.832C58.0053 22.928 58.384 23.088 58.704 23.312C59.024 23.536 59.2693 23.8347 59.44 24.208C59.6213 24.5813 59.712 25.056 59.712 25.632C59.712 26.1013 59.6053 26.5387 59.392 26.944C59.1787 27.3493 58.864 27.6587 58.448 27.872C59.0027 28.0533 59.44 28.368 59.76 28.816C60.08 29.2533 60.24 29.8347 60.24 30.56C60.24 31.2107 60.1173 31.76 59.872 32.208C59.6267 32.6453 59.2907 32.9973 58.864 33.264C58.4373 33.5307 57.9413 33.7227 57.376 33.84C56.8107 33.9467 56.208 34 55.568 34H51.184ZM53.472 31.888H55.84C56.128 31.888 56.3947 31.8667 56.64 31.824C56.896 31.7813 57.12 31.712 57.312 31.616C57.504 31.5093 57.6533 31.3653 57.76 31.184C57.8773 31.0027 57.936 30.7787 57.936 30.512C57.936 30.2667 57.888 30.064 57.792 29.904C57.7067 29.7333 57.5787 29.5947 57.408 29.488C57.248 29.3813 57.056 29.3067 56.832 29.264C56.6187 29.2213 56.3787 29.2 56.112 29.2H53.472V31.888ZM53.472 27.296H55.568C55.856 27.296 56.1173 27.2693 56.352 27.216C56.5867 27.1627 56.784 27.0773 56.944 26.96C57.104 26.8427 57.2267 26.6987 57.312 26.528C57.3973 26.3467 57.44 26.1387 57.44 25.904C57.4507 25.584 57.3813 25.3493 57.232 25.2C57.0827 25.04 56.88 24.9333 56.624 24.88C56.368 24.816 56.08 24.784 55.76 24.784H53.472V27.296ZM61.7081 34V25.568H63.9481V34H61.7081ZM62.8281 24.72C62.4121 24.72 62.0761 24.5973 61.8201 24.352C61.5641 24.096 61.4361 23.7707 61.4361 23.376C61.4361 22.96 61.5695 22.624 61.8361 22.368C62.1028 22.112 62.4388 21.984 62.8441 21.984C63.2175 21.984 63.5375 22.112 63.8041 22.368C64.0815 22.6133 64.2201 22.944 64.2201 23.36C64.2201 23.7653 64.0868 24.096 63.8201 24.352C63.5641 24.5973 63.2335 24.72 62.8281 24.72ZM69.1638 34.112C68.2144 34.112 67.5104 33.8453 67.0518 33.312C66.6038 32.7787 66.3798 32.048 66.3798 31.12V27.568H65.1158V25.568H66.3798V23.296H68.6198V25.568H71.1798V27.568H68.6198V30.656C68.6198 30.9333 68.6518 31.1733 68.7158 31.376C68.7904 31.5787 68.9078 31.7387 69.0677 31.856C69.2384 31.9627 69.4678 32.016 69.7558 32.016C70.0118 32.016 70.2251 31.9787 70.3958 31.904C70.5771 31.8187 70.7264 31.728 70.8438 31.632L71.5478 33.36C71.3238 33.5413 71.0731 33.6907 70.7958 33.808C70.5291 33.9147 70.2571 33.9893 69.9798 34.032C69.7024 34.0853 69.4304 34.112 69.1638 34.112ZM76.2498 34.112C75.3858 34.112 74.6444 33.936 74.0258 33.584C73.4178 33.232 72.9538 32.736 72.6338 32.096C72.3138 31.4453 72.1538 30.6827 72.1538 29.808C72.1538 28.9227 72.3191 28.1547 72.6497 27.504C72.9804 26.8427 73.4551 26.3307 74.0738 25.968C74.7031 25.6053 75.4604 25.424 76.3458 25.424C77.0284 25.424 77.6364 25.5467 78.1698 25.792C78.7031 26.0373 79.1298 26.3893 79.4498 26.848C79.7804 27.3067 79.9724 27.872 80.0258 28.544H77.8338C77.7378 28.1707 77.5511 27.8987 77.2738 27.728C77.0071 27.5573 76.6871 27.472 76.3138 27.472C75.8338 27.472 75.4498 27.5893 75.1618 27.824C74.8844 28.0587 74.6818 28.3573 74.5538 28.72C74.4364 29.0827 74.3778 29.4453 74.3778 29.808C74.3778 30.2027 74.4418 30.576 74.5698 30.928C74.6978 31.2693 74.9004 31.552 75.1778 31.776C75.4658 31.9893 75.8391 32.096 76.2977 32.096C76.6818 32.096 77.0178 32.0107 77.3058 31.84C77.5938 31.6587 77.7804 31.3813 77.8658 31.008H80.1058C80.0524 31.7013 79.8444 32.2773 79.4818 32.736C79.1191 33.1947 78.6551 33.5413 78.0898 33.776C77.5351 34 76.9218 34.112 76.2498 34.112ZM85.3941 34.112C84.5408 34.112 83.7941 33.9413 83.1541 33.6C82.5141 33.248 82.0181 32.752 81.6661 32.112C81.3141 31.4613 81.1381 30.6933 81.1381 29.808C81.1381 28.9013 81.3141 28.1227 81.6661 27.472C82.0288 26.8107 82.5301 26.304 83.1701 25.952C83.8101 25.6 84.5461 25.424 85.3781 25.424C86.2315 25.424 86.9728 25.6053 87.6021 25.968C88.2315 26.3307 88.7221 26.8373 89.0741 27.488C89.4261 28.1387 89.6021 28.9173 89.6021 29.824C89.6021 30.7093 89.4261 31.4773 89.0741 32.128C88.7328 32.768 88.2475 33.2587 87.6181 33.6C86.9995 33.9413 86.2581 34.112 85.3941 34.112ZM85.3621 32.064C85.8528 32.064 86.2475 31.9573 86.5461 31.744C86.8448 31.5307 87.0581 31.2533 87.1861 30.912C87.3248 30.56 87.3941 30.192 87.3941 29.808C87.3941 29.424 87.3248 29.056 87.1861 28.704C87.0581 28.352 86.8448 28.064 86.5461 27.84C86.2581 27.6053 85.8635 27.488 85.3621 27.488C84.8821 27.488 84.4928 27.6053 84.1941 27.84C83.8955 28.064 83.6768 28.352 83.5381 28.704C83.4101 29.056 83.3461 29.424 83.3461 29.808C83.3461 30.2027 83.4101 30.5707 83.5381 30.912C83.6768 31.2533 83.8955 31.5307 84.1941 31.744C84.4928 31.9573 84.8821 32.064 85.3621 32.064ZM91.0363 34V25.568H93.2763V34H91.0363ZM92.1562 24.72C91.7403 24.72 91.4043 24.5973 91.1483 24.352C90.8923 24.096 90.7643 23.7707 90.7643 23.376C90.7643 22.96 90.8976 22.624 91.1643 22.368C91.4309 22.112 91.7669 21.984 92.1723 21.984C92.5456 21.984 92.8656 22.112 93.1323 22.368C93.4096 22.6133 93.5483 22.944 93.5483 23.36C93.5483 23.7653 93.4149 24.096 93.1483 24.352C92.8923 24.5973 92.5616 24.72 92.1562 24.72ZM95.0519 34V25.568H97.1479L97.2599 26.544C97.4945 26.256 97.7612 26.032 98.0599 25.872C98.3692 25.7013 98.6785 25.584 98.9879 25.52C99.3079 25.456 99.5959 25.424 99.8519 25.424C100.663 25.424 101.292 25.6 101.74 25.952C102.199 26.304 102.524 26.7787 102.716 27.376C102.919 27.9627 103.02 28.6187 103.02 29.344V34H100.78V29.632C100.78 29.376 100.759 29.12 100.716 28.864C100.673 28.608 100.593 28.3733 100.476 28.16C100.369 27.9467 100.215 27.776 100.012 27.648C99.8092 27.52 99.5425 27.456 99.2119 27.456C98.7852 27.456 98.4279 27.5627 98.1399 27.776C97.8519 27.9893 97.6385 28.2773 97.4999 28.64C97.3612 29.0027 97.2919 29.4027 97.2919 29.84V34H95.0519ZM113.031 34.112C112.167 34.112 111.426 33.936 110.807 33.584C110.199 33.232 109.735 32.736 109.415 32.096C109.095 31.4453 108.935 30.6827 108.935 29.808C108.935 28.9227 109.1 28.1547 109.431 27.504C109.762 26.8427 110.236 26.3307 110.855 25.968C111.484 25.6053 112.242 25.424 113.127 25.424C113.81 25.424 114.418 25.5467 114.951 25.792C115.484 26.0373 115.911 26.3893 116.231 26.848C116.562 27.3067 116.754 27.872 116.807 28.544H114.615C114.519 28.1707 114.332 27.8987 114.055 27.728C113.788 27.5573 113.468 27.472 113.095 27.472C112.615 27.472 112.231 27.5893 111.943 27.824C111.666 28.0587 111.463 28.3573 111.335 28.72C111.218 29.0827 111.159 29.4453 111.159 29.808C111.159 30.2027 111.223 30.576 111.351 30.928C111.479 31.2693 111.682 31.552 111.959 31.776C112.247 31.9893 112.62 32.096 113.079 32.096C113.463 32.096 113.799 32.0107 114.087 31.84C114.375 31.6587 114.562 31.3813 114.647 31.008H116.887C116.834 31.7013 116.626 32.2773 116.263 32.736C115.9 33.1947 115.436 33.5413 114.871 33.776C114.316 34 113.703 34.112 113.031 34.112ZM120.911 34.112C120.527 34.112 120.154 34.064 119.791 33.968C119.439 33.8613 119.125 33.7013 118.847 33.488C118.57 33.2747 118.351 33.008 118.191 32.688C118.031 32.368 117.951 31.9947 117.951 31.568C117.951 30.992 118.069 30.5333 118.303 30.192C118.538 29.84 118.853 29.5733 119.247 29.392C119.642 29.2107 120.095 29.088 120.607 29.024C121.13 28.96 121.669 28.928 122.223 28.928H123.439C123.439 28.6187 123.381 28.3467 123.263 28.112C123.157 27.8667 122.991 27.68 122.767 27.552C122.543 27.4133 122.255 27.344 121.903 27.344C121.679 27.344 121.461 27.376 121.247 27.44C121.045 27.4933 120.874 27.5733 120.735 27.68C120.597 27.7867 120.506 27.9253 120.463 28.096H118.191C118.255 27.6267 118.405 27.2267 118.639 26.896C118.874 26.5547 119.167 26.2773 119.519 26.064C119.871 25.8507 120.255 25.696 120.671 25.6C121.098 25.4933 121.535 25.44 121.983 25.44C123.21 25.44 124.117 25.792 124.703 26.496C125.29 27.1893 125.583 28.176 125.583 29.456V34H123.567L123.535 32.912C123.269 33.2853 122.965 33.5573 122.623 33.728C122.293 33.8987 121.973 34.0053 121.663 34.048C121.354 34.0907 121.103 34.112 120.911 34.112ZM121.423 32.336C121.797 32.336 122.138 32.2613 122.447 32.112C122.757 31.9627 123.002 31.76 123.183 31.504C123.365 31.248 123.455 30.96 123.455 30.64V30.432H121.919C121.695 30.432 121.477 30.4427 121.263 30.464C121.061 30.4853 120.874 30.528 120.703 30.592C120.543 30.6453 120.415 30.736 120.319 30.864C120.223 30.992 120.175 31.1627 120.175 31.376C120.175 31.5893 120.229 31.7707 120.335 31.92C120.453 32.0587 120.607 32.1653 120.799 32.24C120.991 32.304 121.199 32.336 121.423 32.336ZM127.333 34V25.568H129.349L129.493 26.576C129.706 26.256 129.946 26.016 130.213 25.856C130.48 25.6853 130.757 25.5733 131.045 25.52C131.333 25.456 131.626 25.424 131.925 25.424C132.064 25.424 132.192 25.4293 132.309 25.44C132.426 25.44 132.512 25.44 132.565 25.44V27.6H132.037C131.536 27.6 131.098 27.6853 130.725 27.856C130.352 28.0267 130.064 28.2933 129.861 28.656C129.669 29.0187 129.573 29.4827 129.573 30.048V34H127.333ZM136.93 34.112C136.077 34.112 135.367 33.92 134.802 33.536C134.247 33.1413 133.831 32.6187 133.554 31.968C133.277 31.3067 133.138 30.576 133.138 29.776C133.138 28.9333 133.287 28.1867 133.586 27.536C133.885 26.8747 134.327 26.3573 134.914 25.984C135.501 25.6107 136.231 25.424 137.106 25.424C137.405 25.424 137.698 25.4613 137.986 25.536C138.285 25.6 138.557 25.7013 138.802 25.84C139.058 25.968 139.277 26.1387 139.458 26.352V22.672H141.698V34H139.522L139.49 33.056C139.298 33.3013 139.063 33.504 138.786 33.664C138.519 33.8133 138.231 33.9253 137.922 34C137.613 34.0747 137.282 34.112 136.93 34.112ZM137.378 32.096C137.858 32.096 138.247 31.984 138.546 31.76C138.855 31.536 139.085 31.248 139.234 30.896C139.383 30.544 139.458 30.1653 139.458 29.76C139.458 29.344 139.383 28.9653 139.234 28.624C139.095 28.272 138.871 27.9947 138.562 27.792C138.263 27.5787 137.869 27.472 137.378 27.472C136.887 27.472 136.493 27.584 136.194 27.808C135.895 28.032 135.682 28.3253 135.554 28.688C135.437 29.04 135.378 29.4187 135.378 29.824C135.378 30.1227 135.41 30.4107 135.474 30.688C135.549 30.9547 135.666 31.1947 135.826 31.408C135.986 31.6213 136.194 31.792 136.45 31.92C136.706 32.0373 137.015 32.096 137.378 32.096Z" fill="#F5860E"/>
<path d="M40 8.32081C40 8.8896 21.9048 14.0877 12.8571 16.6156L2.85714 11.8757L40 0.5V8.32081Z" fill="#F5860E"/>
<path d="M0 31.3092V23.2514L40 11.1647V18.5116L25.7143 23.2514L16.2857 18.5116V26.3324L0 31.3092Z" fill="#F5860E"/>
<path d="M0 41.5V34.3902L30.5714 24.9104L40 29.1763L0 41.5Z" fill="#F5860E"/>
</svg>
