<svg width="70" height="70" viewBox="0 0 70 70" fill="none" xmlns="http://www.w3.org/2000/svg">
<rect width="70" height="70" rx="35" fill="#DFDFDF"/>
<path d="M35.0001 27.9482C36.3105 27.9482 37.5383 28.3079 38.5908 28.9331L39.4734 28.0619C38.1521 27.2063 36.6115 26.7471 35.0001 26.7471C32.7955 26.7471 30.723 27.6056 29.1642 29.1644C27.6053 30.7232 26.7468 32.7958 26.7468 35.0003C26.7468 37.2048 27.6053 39.2774 29.1642 40.8363C30.723 42.395 32.7956 43.2535 35.0001 43.2535C37.2046 43.2535 39.2772 42.395 40.836 40.8363C42.3948 39.2774 43.2533 37.2049 43.2533 35.0003C43.2533 33.471 42.8398 32.0053 42.0663 30.7304L41.1682 31.5852C41.7311 32.5976 42.0522 33.7621 42.0522 35.0003C42.0522 38.8889 38.8886 42.0525 35.0001 42.0525C31.1115 42.0525 27.9479 38.8889 27.9479 35.0004C27.9479 31.1118 31.1115 27.9482 35.0001 27.9482Z" fill="#5B767E"/>
<path d="M45.1962 22.4132C44.0165 21.455 42.7133 20.6717 41.3051 20.076C39.3075 19.2311 37.1862 18.8027 34.9999 18.8027C32.8137 18.8027 30.6923 19.2311 28.6948 20.076C26.7658 20.8919 25.0337 22.0597 23.5464 23.5469C22.0592 25.0341 20.8914 26.7663 20.0755 28.6952C19.2307 30.6928 18.8022 32.8141 18.8022 35.0004C18.8022 37.1866 19.2307 39.308 20.0755 41.3056C20.8914 43.2345 22.0592 44.9666 23.5464 46.4539C25.0337 47.9411 26.7658 49.1089 28.6948 49.9248C30.6923 50.7697 32.8137 51.1981 34.9999 51.1981C37.1862 51.1981 39.3075 50.7697 41.3051 49.9248C43.234 49.1089 44.9661 47.9411 46.4534 46.4539C47.9407 44.9666 49.1085 43.2345 49.9243 41.3056C50.7692 39.308 51.1976 37.1867 51.1976 35.0004C51.1976 32.8142 50.7692 30.6928 49.9243 28.6952C49.3926 27.4381 48.7113 26.2647 47.8897 25.1881L46.4325 26.5749C48.1756 28.9339 49.2072 31.8489 49.2072 35.0004C49.2072 42.8343 42.8339 49.2076 35 49.2076C27.1661 49.2076 20.7927 42.8343 20.7927 35.0004C20.7927 27.1664 27.166 20.7931 34.9999 20.7931C38.3042 20.7931 41.3487 21.927 43.7647 23.8262L45.1962 22.4132Z" fill="#5B767E"/>
<path d="M58.0348 25.2685C57.4844 23.9673 56.8303 22.7242 56.0766 21.5453L54.0917 23.3106C56.184 26.7153 57.3918 30.7192 57.3918 35C57.3918 47.347 47.3469 57.3919 34.9999 57.3919C22.653 57.3919 12.608 47.347 12.608 35C12.608 22.6531 22.653 12.6081 35 12.6081C39.5244 12.6081 43.7397 13.9571 47.265 16.2738L49.0915 14.3449C47.726 13.4114 46.2694 12.6156 44.7315 11.9652C41.6486 10.6612 38.3744 10 35 10C31.6256 10 28.3514 10.6612 25.2685 11.9652C22.2913 13.2244 19.6179 15.0268 17.3223 17.3223C15.0268 19.6178 13.2244 22.2913 11.9652 25.2685C10.6612 28.3514 10 31.6256 10 35C10 38.3744 10.6612 41.6485 11.9652 44.7315C13.2244 47.7086 15.0268 50.3821 17.3223 52.6776C19.6178 54.9732 22.2913 56.7756 25.2685 58.0348C28.3514 59.3388 31.6256 60 35 60C38.3744 60 41.6486 59.3388 44.7315 58.0348C47.7087 56.7756 50.3821 54.9732 52.6777 52.6776C54.9732 50.3821 56.7756 47.7086 58.0348 44.7315C59.3388 41.6485 60 38.3744 60 35C60 31.6256 59.3388 28.3515 58.0348 25.2685Z" fill="#5B767E"/>
<path d="M48.1444 21.1909L36.3644 32.8183C35.9688 32.5703 35.5013 32.4265 35 32.4265C33.5786 32.4265 32.4263 33.5789 32.4263 35.0003C32.4263 36.4217 33.5786 37.5741 35 37.5741C36.4215 37.5741 37.5738 36.4217 37.5738 35.0003C37.5738 34.5215 37.4426 34.0735 37.2149 33.6896L49.2014 22.2815L52.5857 23.0429L59.1002 17.2492L54.207 16.3723L53.4834 11.4541L47.489 17.7845L48.1444 21.1909Z" fill="#5B767E"/>
</svg>
