<svg width="71" height="70" viewBox="0 0 71 70" fill="none" xmlns="http://www.w3.org/2000/svg">
<rect x="0.333252" width="70" height="70" rx="35" fill="#DFDFDF"/>
<path d="M40.09 11H35.2322H30.3745C29.2952 11 28.4202 11.875 28.4202 12.9543C28.4202 12.9543 28.4428 13.4792 28.5084 13.7268C28.5741 13.9743 31.5651 25.2517 31.5651 25.2517C31.9385 26.4007 32.4401 27.2061 33.5195 27.2061H35.2322H36.945C38.0244 27.2061 38.526 26.4007 38.8994 25.2517C38.8994 25.2517 41.8904 13.9743 41.9561 13.7268C42.0217 13.4792 42.0443 12.9543 42.0443 12.9543C42.0443 11.875 41.1693 11 40.09 11Z" fill="url(#paint0_linear_126_137)"/>
<path d="M21.7262 14.6662L18.2913 18.1011L14.8564 21.536C14.0931 22.2992 14.0931 23.5366 14.8564 24.2999C14.8564 24.2999 15.2435 24.655 15.465 24.7837C15.6864 24.9123 25.7757 30.7716 25.7757 30.7716C26.8522 31.32 27.7764 31.5348 28.5396 30.7716L29.7507 29.5605L30.9618 28.3494C31.725 27.5862 31.5102 26.662 30.9618 25.5855C30.9618 25.5855 25.1025 15.4962 24.9739 15.2747C24.8452 15.0533 24.4901 14.6662 24.4901 14.6662C23.7268 13.9029 22.4894 13.9029 21.7262 14.6662Z" fill="url(#paint1_linear_126_137)"/>
<path d="M11.3333 30.2434V35.1011V39.9588C11.3333 41.0382 12.2082 41.9132 13.2876 41.9132C13.2876 41.9132 13.8125 41.8906 14.06 41.8249C14.3076 41.7593 25.585 38.7682 25.585 38.7682C26.7339 38.3948 27.5393 37.8932 27.5393 36.8139L27.5393 35.1011V33.3884C27.5393 32.309 26.734 31.8074 25.585 31.434C25.585 31.434 14.3076 28.443 14.0601 28.3773C13.8125 28.3116 13.2876 28.2891 13.2876 28.2891C12.2082 28.2891 11.3333 29.1641 11.3333 30.2434Z" fill="url(#paint2_linear_126_137)"/>
<path d="M14.9992 48.6072L18.4341 52.0421L21.869 55.477C22.6322 56.2402 23.8696 56.2402 24.6329 55.477C24.6329 55.477 24.988 55.0899 25.1167 54.8684C25.2453 54.6469 31.1046 44.5577 31.1046 44.5577C31.653 43.4812 31.8678 42.557 31.1046 41.7938L29.8935 40.5827L28.6824 39.3716C27.9192 38.6084 26.995 38.8232 25.9185 39.3716C25.9185 39.3716 15.8292 45.2309 15.6078 45.3595C15.3863 45.4882 14.9991 45.8433 14.9991 45.8433C14.236 46.6065 14.236 47.844 14.9992 48.6072Z" fill="url(#paint3_linear_126_137)"/>
<path d="M30.5767 59H35.4344H40.2921C41.3715 59 42.2464 58.125 42.2465 57.0456C42.2465 57.0456 42.2239 56.5208 42.1582 56.2732C42.0925 56.0257 39.1015 44.7483 39.1015 44.7483C38.7281 43.5993 38.2265 42.7939 37.1471 42.7939L35.4344 42.794H33.7216C32.6423 42.794 32.1407 43.5993 31.7673 44.7483C31.7673 44.7483 28.7762 56.0257 28.7106 56.2732C28.6449 56.5208 28.6223 57.0457 28.6223 57.0457C28.6223 58.125 29.4973 59 30.5767 59Z" fill="url(#paint4_linear_126_137)"/>
<path d="M48.9405 55.3339L52.3754 51.899L55.8103 48.4641C56.5735 47.7009 56.5735 46.4635 55.8103 45.7002C55.8103 45.7002 55.4232 45.3451 55.2017 45.2164C54.9802 45.0878 44.8909 39.2285 44.8909 39.2285C43.8144 38.6801 42.8902 38.4653 42.127 39.2285L40.9159 40.4396L39.7048 41.6507C38.9416 42.4139 39.1564 43.3381 39.7048 44.4146C39.7048 44.4146 45.5642 54.5039 45.6928 54.7253C45.8214 54.9468 46.1766 55.3339 46.1766 55.3339C46.9398 56.0972 48.1772 56.0972 48.9405 55.3339Z" fill="url(#paint5_linear_126_137)"/>
<path d="M59.3333 39.7567L59.3332 34.899V30.0413C59.3332 28.9619 58.4583 28.0869 57.3789 28.0869C57.3789 28.0869 56.854 28.1095 56.6064 28.1752C56.3589 28.2409 45.0815 31.2319 45.0815 31.2319C43.9326 31.6053 43.1272 32.1069 43.1272 33.1863V34.899V36.6118C43.1272 37.6911 43.9326 38.1927 45.0815 38.5661C45.0815 38.5661 56.3589 41.5572 56.6064 41.6228C56.854 41.6884 57.3789 41.7111 57.3789 41.7111C58.4583 41.7111 59.3332 40.8361 59.3333 39.7567Z" fill="url(#paint6_linear_126_137)"/>
<path d="M55.6672 21.3929L52.2323 17.958L48.7974 14.5231C48.0341 13.7599 46.7967 13.7599 46.0335 14.5231C46.0335 14.5231 45.6783 14.9102 45.5497 15.1317C45.4211 15.3532 39.5618 25.4425 39.5618 25.4425C39.0134 26.519 38.7985 27.4431 39.5618 28.2064L40.7728 29.4174L41.984 30.6286C42.7472 31.3918 43.6713 31.1769 44.7478 30.6286C44.7478 30.6286 54.8371 24.7692 55.0586 24.6406C55.2801 24.512 55.6672 24.1568 55.6672 24.1568C56.4304 23.3936 56.4304 22.1561 55.6672 21.3929Z" fill="url(#paint7_linear_126_137)"/>
<path d="M37.7899 19.5646C37.7899 20.9282 36.6845 22.0336 35.321 22.0336C33.9574 22.0336 32.8521 20.9282 32.8521 19.5646C32.8521 18.2011 33.9574 17.0957 35.321 17.0957C36.6845 17.0957 37.7899 18.2011 37.7899 19.5646Z" fill="#ED1C24"/>
<path d="M35.3209 24.8223C36.9529 24.8223 38.4626 24.2992 39.6915 23.4116C39.2176 22.5478 38.4951 21.8397 37.6202 21.3838C37.0832 22.0614 36.253 22.4962 35.321 22.4962C34.3891 22.4962 33.5588 22.0614 33.0218 21.3838C32.1469 21.8397 31.4244 22.5478 30.9504 23.4116C32.1795 24.2992 33.6891 24.8223 35.3209 24.8223Z" fill="#ED1C24"/>
<path d="M26.0494 22.401C27.0136 23.3652 27.0136 24.9284 26.0494 25.8926C25.0852 26.8567 23.5219 26.8567 22.5578 25.8926C21.5937 24.9284 21.5937 23.3652 22.5578 22.401C23.5219 21.4367 25.0852 21.4367 26.0494 22.401Z" fill="#9E1F63"/>
<path d="M28.0215 27.865C29.1754 26.7111 29.8729 25.2736 30.1144 23.777C29.1685 23.5013 28.1568 23.5116 27.2158 23.8077C27.3153 24.6667 27.0357 25.5613 26.3767 26.2202C25.7178 26.879 24.8232 27.1588 23.9643 27.0593C23.668 28.0004 23.6578 29.0118 23.9334 29.9579C25.4302 29.7165 26.8676 29.0189 28.0215 27.865Z" fill="#9E1F63"/>
<path d="M19.8816 32.5269C21.2451 32.5269 22.3505 33.6323 22.3505 34.9958C22.3505 36.3594 21.2451 37.4648 19.8816 37.4648C18.518 37.4648 17.4126 36.3594 17.4126 34.9958C17.4126 33.6323 18.518 32.5269 19.8816 32.5269Z" fill="#3C2415"/>
<path d="M25.1395 34.9957C25.1395 33.3638 24.6164 31.8542 23.7288 30.625C22.865 31.099 22.1568 31.8215 21.7009 32.6964C22.3787 33.2335 22.8134 34.0638 22.8134 34.9957C22.8135 35.9275 22.3787 36.7577 21.7009 37.2947C22.1568 38.1698 22.865 38.8922 23.7288 39.3662C24.6164 38.1371 25.1396 36.6275 25.1395 34.9957Z" fill="#3C2415"/>
<path d="M22.4213 44.123C23.3856 43.1589 24.9487 43.1589 25.913 44.123C26.8772 45.0872 26.8772 46.6504 25.913 47.6146C24.9487 48.5789 23.3856 48.5789 22.4213 47.6146C21.4572 46.6504 21.4572 45.0872 22.4213 44.123Z" fill="#03213D"/>
<path d="M27.885 42.1505C26.7311 40.9967 25.2937 40.2991 23.797 40.0576C23.5213 41.0037 23.5316 42.0152 23.8278 42.9563C24.6867 42.8568 25.5814 43.1365 26.2402 43.7953C26.8992 44.4543 27.1788 45.3488 27.0793 46.2079C28.0204 46.5041 29.032 46.5142 29.978 46.2386C29.7365 44.7419 29.039 43.3045 27.885 42.1505Z" fill="#03213D"/>
<path d="M32.8521 50.5197C32.8521 49.1562 33.9574 48.0508 35.321 48.0508C36.6846 48.0508 37.7899 49.1562 37.7899 50.5197C37.7899 51.8833 36.6846 52.9886 35.321 52.9886C33.9574 52.9886 32.8521 51.8833 32.8521 50.5197Z" fill="#1C75BC"/>
<path d="M35.321 45.2617C33.6891 45.2617 32.1795 45.7848 30.9504 46.6723C31.4244 47.5363 32.1469 48.2444 33.022 48.7003C33.559 48.0227 34.3891 47.5878 35.321 47.5878C36.2529 47.5878 37.0831 48.0227 37.6202 48.7003C38.4951 48.2444 39.2177 47.5363 39.6916 46.6723C38.4625 45.7848 36.9528 45.2617 35.321 45.2617Z" fill="#1C75BC"/>
<path d="M44.8211 47.6146C43.8568 46.6504 43.8568 45.0872 44.8211 44.123C45.7854 43.1589 47.3485 43.1589 48.3127 44.123C49.2769 45.0871 49.2769 46.6504 48.3127 47.6146C47.3485 48.5788 45.7854 48.5788 44.8211 47.6146Z" fill="#2B3990"/>
<path d="M42.8492 42.1505C41.6951 43.3045 40.9976 44.7418 40.7561 46.2384C41.7021 46.5144 42.7137 46.5039 43.6548 46.2079C43.5553 45.3488 43.8349 44.4543 44.4938 43.7954C45.1528 43.1364 46.0473 42.8567 46.9063 42.9563C47.2026 42.015 47.2127 41.0036 46.937 40.0576C45.4403 40.299 44.0029 40.9966 42.8492 42.1505Z" fill="#2B3990"/>
<path d="M50.684 37.4647C49.3204 37.4647 48.2151 36.3593 48.2151 34.9959C48.2151 33.6322 49.3204 32.5269 50.684 32.5269C52.0475 32.5269 53.1529 33.6322 53.1529 34.9959C53.1529 36.3593 52.0475 37.4647 50.684 37.4647Z" fill="#8DC63F"/>
<path d="M45.426 34.9958C45.426 36.6277 45.9492 38.137 46.8368 39.3663C47.7006 38.8923 48.4087 38.1698 48.8647 37.2948C48.187 36.7578 47.7521 35.9275 47.7521 34.9957C47.7521 34.0638 48.187 33.2335 48.8647 32.6965C48.4087 31.8216 47.7006 31.0991 46.8368 30.625C45.9492 31.8542 45.426 33.3638 45.426 34.9958Z" fill="#8DC63F"/>
<path d="M47.8394 25.8925C46.8753 26.8568 45.312 26.8568 44.3479 25.8926C43.3837 24.9284 43.3837 23.3651 44.3479 22.4009C45.312 21.4367 46.8753 21.4367 47.8394 22.4009C48.8037 23.3651 48.8037 24.9283 47.8394 25.8925Z" fill="#006838"/>
<path d="M42.3756 27.865C43.5296 29.0188 44.9669 29.7164 46.4636 29.9579C46.7394 29.012 46.729 28.0004 46.4329 27.0593C45.5739 27.1588 44.6793 26.8791 44.0204 26.2202C43.3615 25.5612 43.0818 24.6668 43.1814 23.8077C42.2403 23.5116 41.2288 23.5013 40.2827 23.777C40.5242 25.2737 41.2218 26.711 42.3756 27.865Z" fill="#006838"/>
<defs>
<linearGradient id="paint0_linear_126_137" x1="35.115" y1="26.4374" x2="35.2497" y2="10.9404" gradientUnits="userSpaceOnUse">
<stop stop-color="white"/>
<stop offset="0.1049" stop-color="#FEF0F0"/>
<stop offset="0.308" stop-color="#FBC7C9"/>
<stop offset="0.5887" stop-color="#F5878B"/>
<stop offset="0.9333" stop-color="#EE2E35"/>
<stop offset="1" stop-color="#ED1C24"/>
</linearGradient>
<linearGradient id="paint1_linear_126_137" x1="29.0868" y1="30.2438" x2="17.7673" y2="17.3072" gradientUnits="userSpaceOnUse">
<stop stop-color="white"/>
<stop offset="0.1106" stop-color="#FEF0F6"/>
<stop offset="0.3247" stop-color="#FBC7DD"/>
<stop offset="0.6208" stop-color="#F587B4"/>
<stop offset="0.9843" stop-color="#EE2E7D"/>
<stop offset="1" stop-color="#EE2A7B"/>
</linearGradient>
<linearGradient id="paint2_linear_126_137" x1="11.3333" y1="35.1011" x2="27.5393" y2="35.1011" gradientUnits="userSpaceOnUse">
<stop stop-color="#754C29"/>
<stop offset="0.0195" stop-color="#78502E"/>
<stop offset="0.3816" stop-color="#B19A87"/>
<stop offset="0.6765" stop-color="#DBD1C7"/>
<stop offset="0.8898" stop-color="#F5F2F0"/>
<stop offset="1" stop-color="white"/>
</linearGradient>
<linearGradient id="paint3_linear_126_137" x1="31.0468" y1="41.2096" x2="17.4364" y2="52.6639" gradientUnits="userSpaceOnUse">
<stop stop-color="white"/>
<stop offset="0.1355" stop-color="#F0F0F0"/>
<stop offset="0.3977" stop-color="#C8C8C9"/>
<stop offset="0.7567" stop-color="#878889"/>
<stop offset="1" stop-color="#58595B"/>
</linearGradient>
<linearGradient id="paint4_linear_126_137" x1="35.986" y1="42.6125" x2="35.3122" y2="60.2657" gradientUnits="userSpaceOnUse">
<stop stop-color="white"/>
<stop offset="0.1093" stop-color="#F0F9FD"/>
<stop offset="0.321" stop-color="#C7E9F7"/>
<stop offset="0.6136" stop-color="#87D0EE"/>
<stop offset="0.973" stop-color="#2EADE2"/>
<stop offset="1" stop-color="#27AAE1"/>
</linearGradient>
<linearGradient id="paint5_linear_126_137" x1="40.336" y1="41.4356" x2="52.1946" y2="51.5423" gradientUnits="userSpaceOnUse">
<stop stop-color="white"/>
<stop offset="0.1049" stop-color="#F0F6FA"/>
<stop offset="0.308" stop-color="#C7DDEF"/>
<stop offset="0.5887" stop-color="#87B6DB"/>
<stop offset="0.9333" stop-color="#2E80C1"/>
<stop offset="1" stop-color="#1C75BC"/>
</linearGradient>
<linearGradient id="paint6_linear_126_137" x1="43.1272" y1="34.899" x2="59.3333" y2="34.899" gradientUnits="userSpaceOnUse">
<stop stop-color="white"/>
<stop offset="0.0953" stop-color="#FFFEF0"/>
<stop offset="0.2796" stop-color="#FFFCC7"/>
<stop offset="0.5346" stop-color="#FFF986"/>
<stop offset="0.8471" stop-color="#FFF42E"/>
<stop offset="1" stop-color="#FFF200"/>
</linearGradient>
<linearGradient id="paint7_linear_126_137" x1="40.8192" y1="28.8986" x2="52.2735" y2="17.9833" gradientUnits="userSpaceOnUse">
<stop stop-color="white"/>
<stop offset="0.1175" stop-color="#F0F9F1"/>
<stop offset="0.345" stop-color="#C8EACC"/>
<stop offset="0.6595" stop-color="#87D291"/>
<stop offset="1" stop-color="#39B54A"/>
</linearGradient>
</defs>
</svg>
